<svg height="512" viewBox="0 0 512 512" width="512" xmlns="http://www.w3.org/2000/svg"><g id="Reset"><path d="m494.057 211.853c-27.1 4.158-45.8-5.907-57.169-30.781-9.548-25.621-3.445-45.966 18.655-62.187a7.5 7.5 0 0 0 1.609-10.483 249.168 249.168 0 0 0 -53.56-53.56 7.5 7.5 0 0 0 -10.485 1.611c-16.211 22.1-36.553 28.206-62.18 18.653-24.87-11.367-34.94-30.068-30.779-57.163a7.5 7.5 0 0 0 -6.274-8.551 249.064 249.064 0 0 0 -75.748 0 7.5 7.5 0 0 0 -6.274 8.551c4.16 27.094-5.911 45.794-30.79 57.163-25.622 9.551-45.961 3.447-62.18-18.655a7.5 7.5 0 0 0 -10.482-1.609 249.123 249.123 0 0 0 -53.56 53.56 7.5 7.5 0 0 0 1.61 10.484c22.1 16.216 28.2 36.56 18.655 62.186-11.371 24.873-30.064 34.945-57.16 30.781a7.5 7.5 0 0 0 -8.551 6.274 249.122 249.122 0 0 0 0 75.747 7.5 7.5 0 0 0 8.551 6.274c27.09-4.158 45.79 5.91 57.159 30.781 9.552 25.628 3.449 45.97-18.654 62.186a7.5 7.5 0 0 0 -1.61 10.484 249.15 249.15 0 0 0 53.56 53.561 7.5 7.5 0 0 0 10.484-1.609c16.219-22.1 36.558-28.2 62.18-18.657 24.879 11.37 34.95 30.07 30.79 57.164a7.5 7.5 0 0 0 6.274 8.551 249.185 249.185 0 0 0 75.747 0 7.5 7.5 0 0 0 6.275-8.551c-4.161-27.1 5.907-45.8 30.78-57.164 25.625-9.551 45.968-3.447 62.179 18.655a7.5 7.5 0 0 0 10.485 1.611 249.2 249.2 0 0 0 53.56-53.561 7.5 7.5 0 0 0 -1.609-10.483c-22.1-16.221-28.206-36.564-18.654-62.187 11.37-24.873 30.081-34.941 57.168-30.781a7.5 7.5 0 0 0 8.551-6.274 249.122 249.122 0 0 0 0-75.747 7.5 7.5 0 0 0 -8.553-6.274zm-5.29 72.612c-30-2.14-52.6 11.746-65.642 40.493-.068.151-.132.3-.19.459-11.108 29.547-4.95 55.345 17.777 75.046a234.083 234.083 0 0 1 -40.254 40.256c-19.692-22.728-45.491-28.889-75.042-17.779-.155.059-.309.122-.46.191-15.587 7.07-26.865 16.89-33.52 29.182-5.643 10.424-7.981 22.659-6.976 36.455a234.171 234.171 0 0 1 -56.92 0c1-13.795-1.335-26.031-6.981-36.456-6.659-12.292-17.938-22.11-33.526-29.181-.151-.069-.3-.132-.46-.191-16.017-6.021-30.932-7.054-44.332-3.068-11.361 3.38-21.666 10.379-30.712 20.844a234.132 234.132 0 0 1 -40.247-40.247c10.466-9.045 17.464-19.349 20.844-30.712 3.986-13.4 2.953-28.318-3.07-44.34-.059-.154-.122-.308-.191-.459-7.071-15.587-16.889-26.864-29.18-33.52-10.424-5.645-22.665-7.987-36.452-6.978a234.113 234.113 0 0 1 0-56.919c13.788 1.009 26.029-1.332 36.452-6.978 12.291-6.656 22.109-17.933 29.18-33.52.069-.151.132-.305.191-.46 6.023-16.021 7.056-30.939 3.07-44.339-3.38-11.362-10.378-21.667-20.844-30.712a234.1 234.1 0 0 1 40.247-40.247c9.046 10.465 19.351 17.464 30.712 20.844 13.4 3.985 28.314 2.953 44.332-3.068q.234-.089.46-.191c15.588-7.07 26.867-16.889 33.526-29.182 5.646-10.424 7.985-22.66 6.981-36.456a234.121 234.121 0 0 1 56.92 0c-1 13.795 1.333 26.031 6.976 36.455 6.655 12.292 17.933 22.112 33.52 29.182.151.068.305.132.46.191 29.552 11.108 55.35 4.948 75.042-17.778a234.067 234.067 0 0 1 40.251 40.25c-10.463 9.046-17.461 19.35-20.841 30.711-3.988 13.4-2.956 28.318 3.067 44.339.058.155.122.309.19.46 13.043 28.749 35.635 42.633 65.642 40.493a234.2 234.2 0 0 1 0 56.93z"/><path d="m405.972 306.7a22.162 22.162 0 0 0 -27.226-15.421l-6.251 1.729a129.64 129.64 0 0 0 5.88-38.816c0-71.89-58.488-130.378-130.38-130.378s-130.38 58.486-130.38 130.378 58.485 130.379 130.385 130.379a23.5 23.5 0 1 0 0-46.991 83.387 83.387 0 1 1 83.39-83.388 84.4 84.4 0 0 1 -.9 12.38l-.869-3.142a22.129 22.129 0 0 0 -42.655 11.806s11.12 40.214 16.958 61.308a20.712 20.712 0 0 0 9.687 12.423 20.442 20.442 0 0 0 15.623 1.927l61.321-16.961a22.16 22.16 0 0 0 15.417-27.233zm-19.427 12.776-61.321 16.962a5.548 5.548 0 0 1 -4.226-.52 5.615 5.615 0 0 1 -2.625-3.365c-5.84-21.1-16.96-61.315-16.959-61.313a7.129 7.129 0 0 1 13.742-3.8l7.691 27.815a7.5 7.5 0 0 0 14 1.233 97.4 97.4 0 0 0 9.541-42.292 98.385 98.385 0 1 0 -98.388 98.384 8.5 8.5 0 1 1 0 16.991 115.379 115.379 0 1 1 115.38-115.379 114.328 114.328 0 0 1 -9.958 46.92 7.5 7.5 0 0 0 8.847 10.287l20.482-5.663a7.128 7.128 0 1 1 3.8 13.74z"/><path d="m256 86.846a19.962 19.962 0 1 0 -19.96-19.962 19.984 19.984 0 0 0 19.96 19.962zm0-24.923a4.962 4.962 0 1 1 -4.96 4.961 4.966 4.966 0 0 1 4.96-4.961z"/><path d="m389.725 142.234a19.959 19.959 0 0 0 14.116-34.071 19.961 19.961 0 1 0 -14.115 34.072zm-3.5-23.468a4.961 4.961 0 0 1 7.009 0 4.972 4.972 0 0 1 0 7.02 4.96 4.96 0 1 1 -7.01-7.019z"/><path d="m445.115 236.039a19.962 19.962 0 1 0 19.96 19.961 19.984 19.984 0 0 0 -19.96-19.961zm0 24.923a4.962 4.962 0 1 1 4.96-4.961 4.966 4.966 0 0 1 -4.96 4.961z"/><path d="m389.725 369.767a19.959 19.959 0 1 0 14.115 34.072 19.959 19.959 0 0 0 -14.116-34.071zm3.5 23.468a4.959 4.959 0 1 1 0-7.019 4.972 4.972 0 0 1 .005 7.019z"/><path d="m256 425.156a19.961 19.961 0 1 0 19.96 19.961 19.983 19.983 0 0 0 -19.96-19.961zm0 24.922a4.961 4.961 0 1 1 4.96-4.961 4.966 4.966 0 0 1 -4.96 4.961z"/><path d="m136.385 375.608a19.946 19.946 0 1 0 0 28.231 20 20 0 0 0 0-28.231zm-10.6 17.621a4.956 4.956 0 1 1 -.006-7.012 4.981 4.981 0 0 1 .007 7.012z"/><path d="m66.885 236.039a19.962 19.962 0 1 0 19.96 19.961 19.988 19.988 0 0 0 -19.96-19.961zm0 24.923a4.962 4.962 0 1 1 4.96-4.962 4.972 4.972 0 0 1 -4.96 4.962z"/><path d="m122.271 142.223a19.914 19.914 0 0 0 14.114-5.829l.006-.006a20 20 0 1 0 -14.12 5.835zm-3.516-23.452a4.964 4.964 0 1 1 .006 7.015 4.965 4.965 0 0 1 -.006-7.015z"/></g></svg>