<?xml version="1.0" standalone="no"?><!DOCTYPE svg PUBLIC "-//W3C//DTD SVG 1.1//EN" "http://www.w3.org/Graphics/SVG/1.1/DTD/svg11.dtd"><svg t="1624612253461" class="icon" viewBox="0 0 1024 1024" version="1.1" xmlns="http://www.w3.org/2000/svg" p-id="34826" data-spm-anchor-id="a313x.7781069.0.i47" xmlns:xlink="http://www.w3.org/1999/xlink" width="200" height="200"><defs><style type="text/css"></style></defs><path d="M588.251429 524.617143L990.354286 122.514286a52.662857 52.662857 0 0 0 0-74.057143l-2.194286-2.194286a52.662857 52.662857 0 0 0-74.057143 0L512 448.914286 109.897143 46.262857a52.662857 52.662857 0 0 0-74.057143 0l-2.194286 2.194286c-20.845714 20.297143-20.845714 53.76 0 74.057143l402.102857 402.102857L33.645714 926.72a52.662857 52.662857 0 0 0 0 74.057143l2.194286 2.194286a52.662857 52.662857 0 0 0 74.057143 0L512 600.868571l402.102857 402.102858a52.662857 52.662857 0 0 0 74.057143 0l2.194286-2.194286a52.662857 52.662857 0 0 0 0-74.057143L588.251429 524.617143z" p-id="34827" fill="#414D68"></path></svg>