<?xml version="1.0" standalone="no"?><!DOCTYPE svg PUBLIC "-//W3C//DTD SVG 1.1//EN" "http://www.w3.org/Graphics/SVG/1.1/DTD/svg11.dtd"><svg t="1624609038519" class="icon" viewBox="0 0 1024 1024" version="1.1" xmlns="http://www.w3.org/2000/svg" p-id="30297" xmlns:xlink="http://www.w3.org/1999/xlink" width="200" height="200"><defs><style type="text/css"></style></defs><path d="M415.604364 279.272727L279.272727 415.604364V279.272727h136.331637z m192.791272 0H744.727273v136.331637L608.395636 279.272727zM744.727273 608.395636V744.727273h-136.331637L744.727273 608.395636zM415.604364 744.727273H279.272727v-136.331637L415.604364 744.727273zM39.936 264.983273a39.889455 39.889455 0 0 0 39.889455-39.889455V103.982545a24.203636 24.203636 0 0 1 24.15709-24.15709h121.111273a39.889455 39.889455 0 1 0 0-79.825455H70.469818C31.650909 0 0 31.650909 0 70.469818v154.624c0 22.016 17.873455 39.889455 39.936 39.889455z m185.157818 679.191272H103.982545a24.203636 24.203636 0 0 1-24.15709-24.15709v-121.111273a39.889455 39.889455 0 1 0-79.825455 0v154.624C0 992.349091 31.650909 1024 70.469818 1024h154.624a39.889455 39.889455 0 1 0 0-79.825455z m758.970182-185.157818a39.889455 39.889455 0 0 0-39.889455 39.889455v121.111273a24.203636 24.203636 0 0 1-24.15709 24.15709h-121.111273a39.889455 39.889455 0 1 0 0 79.825455h154.624C992.349091 1024 1024 992.349091 1024 953.530182v-154.624a39.889455 39.889455 0 0 0-39.936-39.889455zM953.530182 0h-154.624a39.889455 39.889455 0 1 0 0 79.825455h121.111273a24.203636 24.203636 0 0 1 24.15709 24.15709v121.111273a39.889455 39.889455 0 1 0 79.825455 0V70.469818C1024 31.650909 992.349091 0 953.530182 0zM140.427636 211.316364v603.973818c0 38.772364 31.650909 70.469818 70.469819 70.469818H813.614545c38.818909 0 70.469818-31.650909 70.469819-70.469818V211.316364c0-38.818909-31.650909-70.469818-70.469819-70.469819H210.850909c-38.818909 0-70.469818 31.650909-70.469818 70.469819z m68.747637 26.065454a24.203636 24.203636 0 0 1 24.157091-24.110545h559.429818a24.203636 24.203636 0 0 1 24.110545 24.157091v557.474909a24.203636 24.203636 0 0 1-24.110545 24.157091H233.285818a24.203636 24.203636 0 0 1-24.110545-24.203637V237.474909z" p-id="30298" data-spm-anchor-id="a313x.7781069.0.i39" fill="#FFC34E" class="selected"></path></svg>