<?xml version="1.0" standalone="no"?><!DOCTYPE svg PUBLIC "-//W3C//DTD SVG 1.1//EN" "http://www.w3.org/Graphics/SVG/1.1/DTD/svg11.dtd"><svg t="1624609033096" class="icon" viewBox="0 0 1024 1024" version="1.1" xmlns="http://www.w3.org/2000/svg" p-id="30110" xmlns:xlink="http://www.w3.org/1999/xlink" width="200" height="200"><defs><style type="text/css"></style></defs><path d="M342.289067 153.6H187.733333a34.133333 34.133333 0 0 0-34.133333 34.133333v147.0464a34.133333 34.133333 0 1 0 68.266667 0V221.866667h120.4224a34.133333 34.133333 0 1 0 0-68.266667z m443.733333 0H631.466667a34.133333 34.133333 0 1 0 0 68.266667h120.4224v112.913066a34.133333 34.133333 0 1 0 68.266666 0V187.733333a34.133333 34.133333 0 0 0-34.133333-34.133333z m-443.733333 624.981333H221.866667V665.6a34.133333 34.133333 0 1 0-68.266667 0v147.114667a34.133333 34.133333 0 0 0 34.133333 34.133333h154.555734a34.133333 34.133333 0 1 0 0-68.266667z m443.733333-147.114666a34.133333 34.133333 0 0 0-34.133333 34.133333v112.981333H631.466667a34.133333 34.133333 0 1 0 0 68.266667h154.555733a34.133333 34.133333 0 0 0 34.133333-34.133333V665.6a34.133333 34.133333 0 0 0-34.133333-34.133333zM921.6 0H68.266667C30.651733 0 0 30.583467 0 68.266667v853.333333c0 37.6832 30.651733 68.266667 68.266667 68.266667h853.333333c37.6832 0 68.266667-30.583467 68.266667-68.266667V68.266667c0-37.6832-30.583467-68.266667-68.266667-68.266667zM68.266667 921.6V68.266667h853.333333l0.068267 853.333333H68.266667z" p-id="30111" data-spm-anchor-id="a313x.7781069.0.i36" fill="#FFC34E" class="selected"></path></svg>