<?xml version="1.0" standalone="no"?><!DOCTYPE svg PUBLIC "-//W3C//DTD SVG 1.1//EN" "http://www.w3.org/Graphics/SVG/1.1/DTD/svg11.dtd"><svg t="1624603030442" class="icon" viewBox="0 0 1149 1024" version="1.1" xmlns="http://www.w3.org/2000/svg" p-id="17844" xmlns:xlink="http://www.w3.org/1999/xlink" width="224.4140625" height="200"><defs><style type="text/css"></style></defs><path d="M127.682868 2.537059h1021.462941v893.780073a127.682868 127.682868 0 0 1-127.682868 127.682868H127.682868a127.682868 127.682868 0 0 1-127.682868-127.682868v-766.097206a127.682868 127.682868 0 0 1 127.682868-127.682867z m255.365735 0s114.084642-31.218461 255.365735 127.682867a373.408547 373.408547 0 0 0 255.365736 127.682868h191.524301a74.758319 74.758319 0 0 1 63.841434 63.841434c-2.872865 62.245398 0-319.207169 0-319.207169H383.048603z" fill="#FFC34E" p-id="17845"></path><path d="M383.048603 385.585662h766.097206v63.841433H383.048603v-63.841433z m0 0v63.841433l-383.048603 127.682868v-63.841434z" fill="#FFFFFF" p-id="17846"></path></svg>