<?xml version="1.0" standalone="no"?><!DOCTYPE svg PUBLIC "-//W3C//DTD SVG 1.1//EN" "http://www.w3.org/Graphics/SVG/1.1/DTD/svg11.dtd"><svg t="1624609073357" class="icon" viewBox="0 0 1024 1024" version="1.1" xmlns="http://www.w3.org/2000/svg" p-id="31156" xmlns:xlink="http://www.w3.org/1999/xlink" width="200" height="200"><defs><style type="text/css"></style></defs><path d="M633.742222 845.368889a365.909333 365.909333 0 0 0 245.76-336.213333c5.12-164.977778-101.262222-312.888889-259.413333-361.244445a35.271111 35.271111 0 0 1 19.911111-67.697778A436.792889 436.792889 0 0 1 949.475556 512a437.873778 437.873778 0 0 1-303.786667 405.048889l48.355555 29.582222c17.066667 10.24 22.755556 31.857778 12.515556 48.924445-6.826667 11.946667-19.911111 18.204444-33.564444 17.635555-6.257778 0-12.515556-2.275556-17.635556-5.12l-118.328889-73.386667a35.441778 35.441778 0 0 1-11.946667-48.924444l72.817778-118.897778c9.671111-17.066667 31.857778-22.755556 48.355556-12.515555 5.688889 3.413333 10.24 7.964444 13.084444 13.653333 6.257778 11.377778 5.688889 25.031111-1.137778 35.84l-24.462222 41.528889zM380.017778 97.28l-40.96-17.066667a36.408889 36.408889 0 0 1-18.773334-47.217777c7.395556-18.204444 28.444444-26.737778 46.648889-18.773334l128 55.182222c8.533333 3.982222 15.36 10.808889 18.773334 19.911112 3.413333 8.533333 3.413333 18.773333 0 27.306666L459.662222 244.622222c-5.688889 13.653333-18.773333 22.186667-32.995555 21.617778-11.946667 0-23.324444-6.257778-29.582223-15.928889a35.271111 35.271111 0 0 1-3.413333-33.564444l23.893333-55.751111c-160.995556 42.097778-273.635556 187.733333-273.066666 354.417777a366.023111 366.023111 0 0 0 269.084444 353.848889c19.342222 5.12 30.151111 24.462222 25.6 43.804445-3.982222 15.36-18.204444 26.168889-34.133333 26.737777-2.844444 0-6.257778-0.568889-9.102222-1.137777A437.361778 437.361778 0 0 1 74.524444 515.982222a436.679111 436.679111 0 0 1 305.493334-418.702222z" p-id="31157" data-spm-anchor-id="a313x.7781069.0.i43" fill="#FFC34E" class="selected"></path></svg>