<?xml version="1.0" standalone="no"?><!DOCTYPE svg PUBLIC "-//W3C//DTD SVG 1.1//EN" "http://www.w3.org/Graphics/SVG/1.1/DTD/svg11.dtd"><svg t="1624608385170" class="icon" viewBox="0 0 1024 1024" version="1.1" xmlns="http://www.w3.org/2000/svg" p-id="18820" xmlns:xlink="http://www.w3.org/1999/xlink" width="200" height="200"><defs><style type="text/css"></style></defs><path d="M255.999163 704.001046h191.999373V1024H255.999163z" p-id="18821" fill="#FFC34E"></path><path d="M535.423087 1024V572.23677h488.57524v451.76323H535.423087z m430.08696-388.677004h-370.278528v328.23443h370.278528V635.322996zM662.954173 673.704465s25.06784 123.972196 133.246728 110.298829l5.715642-36.617919s4.840559-21.177656 23.307636-3.973844l90.150189 96.178719s20.228954 14.120111-5.277264 25.148153l-115.656406 65.291499s-17.148598 7.93932-18.46875-9.264493l5.717314-39.261571c0.436704-0.446744-192.175058-38.383143-125.334178-208.677801 0 0 3.962131-6.175771 6.599089 0.878428z" p-id="18822" fill="#FFC34E"></path><path d="M447.996863 511.998327v127.997908H191.994353v384.000419H127.996235L-0.001673 858.159392V0h1023.99498v511.998327H447.996863zM831.997281 129.676125a1.673197 1.673197 0 0 0-1.673197-1.673197h-636.651514a1.673197 1.673197 0 0 0-1.673197 1.673197v316.65256a1.673197 1.673197 0 0 0 1.673197 1.673197h636.651514a1.673197 1.673197 0 0 0 1.673197-1.673197V129.676125z" p-id="18823" fill="#FFC34E"></path><path d="M319.998954 192.002719m0.836599 0l382.325548 0q0.836599 0 0.836598 0.836599l0 62.326593q0 0.836599-0.836598 0.836599l-382.325548 0q-0.836599 0-0.836599-0.836599l0-62.326593q0-0.836599 0.836599-0.836599Z" p-id="18824" fill="#FFC34E"></path><path d="M319.998954 320.002301m0.836599 0l382.325548 0q0.836599 0 0.836598 0.836598l0 62.326594q0 0.836599-0.836598 0.836598l-382.325548 0q-0.836599 0-0.836599-0.836598l0-62.326594q0-0.836599 0.836599-0.836598Z" p-id="18825" fill="#FFC34E"></path></svg>