<svg id="Capa_1" enable-background="new 0 0 512 512" height="512" viewBox="0 0 512 512" width="512" xmlns="http://www.w3.org/2000/svg" xmlns:xlink="http://www.w3.org/1999/xlink"><linearGradient id="lg1"><stop offset="0" stop-color="#fd5900"/><stop offset="1" stop-color="#ffde00"/></linearGradient><linearGradient id="SVGID_1_" gradientUnits="userSpaceOnUse" x1="406" x2="406" xlink:href="#lg1" y1="512" y2="421"/><linearGradient id="lg2"><stop offset="0" stop-color="#ffe59a"/><stop offset="1" stop-color="#ffffd5"/></linearGradient><linearGradient id="SVGID_2_" gradientUnits="userSpaceOnUse" x1="106" x2="106" xlink:href="#lg2" y1="91" y2="0"/><linearGradient id="SVGID_3_" gradientUnits="userSpaceOnUse" x1="256" x2="256" xlink:href="#lg1" y1="391" y2="0"/><linearGradient id="SVGID_4_" gradientUnits="userSpaceOnUse" x1="286.5" x2="286.5" xlink:href="#lg2" y1="451" y2="151"/><g><path d="m436 512h-60c-8.291 0-15-6.709-15-15v-61c0-8.291 6.709-15 15-15h60c8.291 0 15 6.709 15 15v61c0 8.291-6.709 15-15 15z" fill="url(#SVGID_1_)"/><path d="m136 91h-60c-8.291 0-15-6.709-15-15v-61c0-8.291 6.709-15 15-15h60c8.291 0 15 6.709 15 15v61c0 8.291-6.709 15-15 15z" fill="url(#SVGID_2_)"/><path d="m507.605 4.395c-5.859-5.859-15.352-5.859-21.211 0l-56.605 56.605h-414.789c-8.401 0-15 6.599-15 15v60c0 8.399 6.599 15 15 15h46l45 30 45-30h188.789l-214.394 214.395c-5.859 5.859-5.859 15.352 0 21.211 2.93 2.93 6.768 4.395 10.605 4.395s7.676-1.465 10.605-4.395l214.395-214.395v188.789l45 30 45-30v-278.789l56.605-56.605c5.86-5.86 5.86-15.352 0-21.211z" fill="url(#SVGID_3_)"/><path d="m497 361h-346v-210h-90v285c0 8.399 6.599 15 15 15h421c8.401 0 15-6.601 15-15v-60c0-8.401-6.599-15-15-15z" fill="url(#SVGID_4_)"/></g></svg>